<svg xmlns="http://www.w3.org/2000/svg" width="50" height="50" viewBox="0 0 50 50">
    <path fill="#32454C" fill-rule="evenodd" d="M19.473.997c.665-.173 1.3-.332 1.93-.503C22.666.15 23.956.01 25.26.02c2.934.021 5.693.731 8.216 2.234C37.8 4.83 40.452 8.61 41.452 13.546c.143.71.016 1.406-.1 2.099-.573 3.415-2.105 6.336-4.566 8.77-.099.098-.201.193-.303.288-.01.01-.026.015-.068.039.1-.342.194-.661.285-.981.386-1.37.598-2.765.652-4.187.095-2.503-.295-4.926-1.232-7.247a8.117 8.117 0 0 0-1.013-1.793c-.966-1.296-1.919-2.616-3.01-3.804-2.704-2.942-6.079-4.717-10.01-5.417-.846-.15-1.71-.209-2.614-.316zM33.045 16.98c-2.868-5.333-7.185-8.69-13.15-9.78-5.964-1.088-11.175.542-15.727 4.503.212-.381.41-.772.64-1.143 2.535-4.092 6.143-6.712 10.867-7.643 4.751-.936 9.172.006 13.172 2.762.39.269.698.678.991 1.062 1.66 2.174 2.703 4.617 3.062 7.33.118.894.116 1.805.167 2.708.004.058-.013.117-.022.201zm-8.363-3.295c-5.672-1.72-11.083-1.133-16.017 2.282C3.735 19.38 1.263 24.222.89 30.214l-.124-.377c-.04-.125-.082-.25-.117-.376-.453-1.621-.706-3.275-.64-4.956.169-4.257 1.69-7.962 4.653-11.044 2.162-2.248 4.767-3.755 7.79-4.53.486-.126.98-.256 1.477-.295.442-.036.898.024 1.34.088 3.167.458 5.955 1.745 8.346 3.873.385.343.724.737 1.066 1.088zM38.24 4.447a16.137 16.137 0 0 1 4.762 3.53c2.25 2.41 3.676 5.243 4.205 8.494.728 4.478-.19 8.611-2.809 12.328-.341.484-.872.853-1.362 1.21a15.405 15.405 0 0 1-7.449 2.896c-.825.094-1.66.099-2.491.117 5.261-2.847 8.68-7.096 9.752-13.01 1.07-5.908-.624-11.08-4.608-15.565zM16.783 17.053c-5.245 2.818-8.662 7.057-9.732 12.965-1.068 5.894.61 11.061 4.561 15.522l-.039.057c-.707-.438-1.441-.839-2.118-1.32-3.395-2.415-5.633-5.646-6.558-9.71-1.103-4.85-.205-9.344 2.652-13.43a1.97 1.97 0 0 1 .353-.366c2.417-2.034 5.195-3.253 8.33-3.63.843-.101 1.698-.106 2.547-.155l.004.067zm13.303 31.801c-.465.13-.928.27-1.396.388-1.498.377-3.024.547-4.561.454-5.693-.345-10.126-2.909-13.267-7.668-1.22-1.846-1.983-3.887-2.325-6.07-.08-.507.002-1.051.076-1.568.406-2.822 1.495-5.358 3.277-7.584.478-.596 1.032-1.132 1.553-1.695.035-.038.08-.067.13-.107-1.736 5.72-1.144 11.131 2.274 16.064 3.419 4.934 8.263 7.408 14.239 7.786zM16.92 32.932c2.835 5.275 7.079 8.679 12.975 9.748 5.899 1.07 11.068-.617 15.556-4.564-.207.375-.401.758-.624 1.123-2.378 3.884-5.755 6.462-10.182 7.539-4.86 1.182-9.387.316-13.52-2.52a2.653 2.653 0 0 1-.524-.488c-1.866-2.232-3.037-4.783-3.502-7.657a16.11 16.11 0 0 1-.195-3.031c.001-.038.008-.077.016-.15zm32.264-13.38c.198.864.426 1.723.586 2.595.26 1.417.284 2.852.143 4.283a16.062 16.062 0 0 1-2.041 6.46c-1.877 3.288-4.56 5.675-8.045 7.158-1.166.496-2.375.864-3.63 1.03-.495.066-1.02-.007-1.522-.08a15.618 15.618 0 0 1-6.748-2.646 15.774 15.774 0 0 1-2.532-2.179c-.04-.043-.075-.09-.113-.136 5.712 1.733 11.121 1.148 16.056-2.266 4.93-3.41 7.405-8.25 7.774-14.198l.072-.022zM18.302 32.216a19.562 19.562 0 0 0 3.436 2.494c.075.044.139.123.188.198a17.517 17.517 0 0 0 5.833 5.562.3.3 0 0 1 .11.098c-4.308-1.5-7.495-4.288-9.567-8.352zM31.668 17.49c-.341-.286-.666-.597-1.028-.855-.75-.535-1.52-1.039-2.279-1.56a.979.979 0 0 1-.27-.242 17.593 17.593 0 0 0-5.771-5.53.386.386 0 0 1-.136-.118c4.272 1.495 7.434 4.263 9.484 8.305zm9.208 4.243c-1.52 4.294-4.287 7.469-8.343 9.53.039-.05.074-.103.116-.15a18.303 18.303 0 0 0 2.289-3.152.815.815 0 0 1 .244-.27 17.61 17.61 0 0 0 5.578-5.852c.02-.033.043-.064.065-.095.003-.004.012-.003.051-.012zm-23.418-3.277c-.484.62-.985 1.229-1.449 1.865-.328.449-.601.938-.91 1.401a1.306 1.306 0 0 1-.34.364 17.63 17.63 0 0 0-5.454 5.716c-.038.064-.08.124-.147.225 1.194-3.862 4.312-7.663 8.3-9.571zm-5.83-2.417c4.083-1.986 8.28-2.26 12.589-.868-1.246.067-2.477.234-3.682.553-.41.11-.792.108-1.204.031a17.264 17.264 0 0 0-7.57.26c-.043.012-.088.016-.132.024zm3.402 9.476c.096.79.176 1.597.298 2.398.079.519.206 1.031.335 1.54.056.225.064.434.018.66-.328 1.595-.457 3.208-.294 4.828.109 1.075.313 2.14.453 3.064-.482-.782-1.46-3.363-1.63-6.077-.137-2.198.128-4.34.82-6.413zM34.11 11.542c1.972 4.157 2.248 8.367.88 12.681-.115-.876-.22-1.756-.348-2.632a6.496 6.496 0 0 0-.24-1.086c-.125-.385-.102-.751-.027-1.137a16.35 16.35 0 0 0 .145-5.521c-.11-.748-.264-1.49-.41-2.305zm-8.343 23.015c1.42-.052 2.809-.303 4.185-.653.18-.045.394.021.589.059a17.47 17.47 0 0 0 7.754-.251.254.254 0 0 1 .134-.008c-4.103 1.98-8.325 2.254-12.662.853z" opacity=".375"/>
</svg>
