<svg xmlns="http://www.w3.org/2000/svg" width="80" height="27" viewBox="0 0 80 27">
    <g fill="none" fill-rule="evenodd" opacity=".375">
        <path fill="#32454C" d="M79.297 21.587a.674.674 0 0 1-.677-.677c0-.368.3-.677.677-.677.369 0 .678.3.678.677a.685.685 0 0 1-.678.677zm0-1.223c-.3 0-.546.246-.546.546 0 .3.246.546.546.546.3 0 .546-.245.546-.546 0-.3-.245-.546-.546-.546zm.343.902h-.156l-.136-.254h-.178v.254h-.144v-.745h.356c.157 0 .254.101.254.245 0 .11-.068.19-.157.224l.161.276zm-.266-.348c.055 0 .11-.04.11-.131 0-.106-.047-.13-.11-.13h-.225v.266h.225v-.005zM8.58 20.165h1.735v4.728h3.014v1.515H8.58v-6.243zm6.544 3.137v-.022c0-1.79 1.447-3.25 3.373-3.25 1.926 0 3.349 1.435 3.349 3.225v.021c0 1.79-1.448 3.251-3.374 3.251-1.926 0-3.348-1.435-3.348-3.225zm4.96 0v-.022c0-.901-.643-1.68-1.604-1.68-.943 0-1.578.766-1.578 1.668v.02c0 .902.643 1.681 1.591 1.681.957 0 1.592-.766 1.592-1.667zm3.886.368v-3.505h1.757v3.471c0 .902.457 1.325 1.147 1.325s1.147-.41 1.147-1.278v-3.518h1.757v3.463c0 2.014-1.147 2.895-2.925 2.895-1.77-.004-2.883-.898-2.883-2.853zm8.458-3.505h2.404c2.226 0 3.526 1.278 3.526 3.082v.02c0 1.804-1.312 3.137-3.56 3.137h-2.37v-6.239zm2.433 4.707c1.033 0 1.723-.567 1.723-1.579v-.021c0-1.003-.69-1.579-1.723-1.579h-.702v3.17h.702v.009zm6.011-4.707h4.995v1.515h-3.272v1.067h2.958v1.435h-2.958v2.226h-1.723v-6.243zm7.399 0h1.723v4.728h3.026v1.515h-4.753v-6.243h.004zm9.27-.046h1.667l2.659 6.285h-1.859l-.457-1.113h-2.404l-.444 1.113h-1.816l2.654-6.285zm1.524 3.826l-.69-1.77-.703 1.77h1.393zm5.032-3.78h2.95c.957 0 1.613.246 2.037.677.368.356.554.834.554 1.456v.022c0 .956-.512 1.591-1.278 1.913l1.49 2.18h-2.002L66.59 24.52h-.757v1.892h-1.736v-6.248zm2.87 2.993c.589 0 .923-.288.923-.737V22.4c0-.491-.356-.737-.936-.737H65.82v1.49l1.147.005zm5.164-2.993h5.02v1.469h-3.305v.944h2.992v1.367h-2.992v.99h3.348v1.47H72.13v-6.24zM4.796 24.034c-.246.546-.758.935-1.427.935-.944 0-1.591-.791-1.591-1.68v-.021c0-.902.635-1.668 1.579-1.668.71 0 1.257.436 1.481 1.033h1.824c-.287-1.49-1.604-2.595-3.293-2.595C1.448 20.042 0 21.498 0 23.288v.022c0 1.795 1.426 3.23 3.348 3.23 1.647 0 2.938-1.067 3.272-2.493l-1.824-.013z"/>
        <path fill="#FFF" fill-rule="nonzero" d="M75.103 10.205l-4.775-2.738-.825-.356-19.53.136v9.913h25.125z"/>
        <path fill="#32454C" d="M66.408 16.246c.233-.8.144-1.537-.245-2.083-.356-.5-.957-.792-1.68-.825l-13.698-.178a.264.264 0 0 1-.211-.11.305.305 0 0 1-.034-.246.378.378 0 0 1 .321-.245l13.82-.178c1.634-.076 3.416-1.401 4.039-3.027l.791-2.057a.415.415 0 0 0 .021-.266A8.978 8.978 0 0 0 60.758 0a9.004 9.004 0 0 0-8.525 6.108 4.095 4.095 0 0 0-2.836-.792 4.048 4.048 0 0 0-3.615 3.615c-.047.491-.013.97.102 1.414a5.75 5.75 0 0 0-5.588 5.752c0 .28.021.555.055.834a.272.272 0 0 0 .267.233h25.283c.143 0 .279-.102.321-.245l.186-.673zM70.772 7.446c-.122 0-.253 0-.376.012-.09 0-.165.068-.2.157l-.533 1.858c-.232.8-.143 1.537.246 2.083.356.499.957.791 1.68.825l2.917.178c.089 0 .165.046.211.11a.31.31 0 0 1 .034.245.378.378 0 0 1-.321.246l-3.04.178c-1.646.076-3.415 1.4-4.038 3.026l-.224.567c-.047.11.034.225.157.225h10.43a.272.272 0 0 0 .266-.2c.178-.643.28-1.324.28-2.023 0-4.127-3.362-7.487-7.489-7.487"/>
    </g>
</svg>
