<svg xmlns="http://www.w3.org/2000/svg" width="50" height="33" viewBox="0 0 50 33">
    <g fill="#32454C" fill-rule="evenodd" opacity=".375">
        <path d="M23.733 29.371c-9.873.911-20.163-.523-21.604-8.24-.705-3.803 1.03-7.836 3.328-10.343V9.45C1.317 13.081-.928 17.676.365 23.104c1.651 6.962 10.48 10.904 23.961 9.595 5.336-.517 12.314-2.233 17.169-4.9v-3.784c-4.406 2.625-11.692 4.793-17.762 5.356zM49.742 9.36C47.4-2.074 25.2-2.8 10.89 5.912v.962C25.184-.475 45.46-.43 47.305 10.102c.62 3.484-1.343 7.114-4.85 9.204v2.733c4.218-1.547 8.544-6.551 7.287-12.68z"/>
        <path d="M40.696 7.694h-2.588v11.53c0 1.35.653 2.525 2.588 2.713V7.694zm-30.822 4.21H7.28l-.001 7.532c0 1.356.655 2.53 2.595 2.714V11.904zM7.28 8.044h2.586V10.5H7.28V8.045zm18.096 13.987c-2.095 0-2.982-1.457-2.982-2.891V9.138h2.567v2.766h1.932v2.072h-1.932v5.005c0 .585.277.91.887.91h1.045v2.14h-1.517zm4.722-4.261c0 1.313.821 2.278 2.274 2.278 1.139 0 1.7-.316 2.357-.965l1.586 1.51c-1.017 1.005-2.082 1.615-3.962 1.615-2.455 0-4.808-1.34-4.808-5.247 0-3.34 2.056-5.23 4.751-5.23 2.74 0 4.316 2.211 4.316 5.113v.926h-6.514zm2.086-3.916c-.878 0-1.553.452-1.84 1.063-.166.366-.227.652-.246 1.103h3.955c-.05-1.103-.55-2.166-1.869-2.166zm-15.34.122c.752 0 1.065.372 1.065.976v7.093h2.566v-7.108c0-1.44-.767-3.03-3.021-3.03l-5.302-.003v10.141h2.568v-8.069h2.123zm26.638-4.222c-.57 0-1.026-.46-1.026-1.03 0-.567.455-1.03 1.026-1.03.567 0 1.034.463 1.034 1.03 0 .57-.467 1.03-1.034 1.03zm0-1.888a.855.855 0 0 0-.849.858.85.85 0 0 0 .849.854.86.86 0 0 0 .86-.854c0-.47-.39-.858-.86-.858zm.456 1.475h-.192a.043.043 0 0 1-.04-.025l-.26-.443a.077.077 0 0 0-.036-.02h-.12v.441c0 .022-.014.047-.043.047h-.173c-.026 0-.044-.025-.044-.047V8.181c0-.065.022-.092.079-.1.062-.006.225-.015.316-.015.321 0 .51.095.51.393v.022c0 .183-.091.284-.232.328l.27.462c.005.01.008.021.008.033 0 .017-.01.037-.043.037zm-.249-.882c0-.125-.077-.164-.243-.164h-.164v.353l.164.006c.166 0 .243-.056.243-.173v-.022z"/>
    </g>
</svg>
