<svg xmlns="http://www.w3.org/2000/svg" width="57" height="39" viewBox="0 0 57 39">
    <g fill="none" fill-rule="evenodd" opacity=".375">
        <path d="M-10.774-9.758h79.646v55.204h-79.646z"/>
        <path fill="#32454C" d="M13.606 34.826H11.45c-.077-3.64-.287-7.061-.63-10.267h-.02L7.519 34.826H5.876L2.613 24.56h-.019c-.242 3.078-.394 6.5-.458 10.267H.171c.126-4.58.445-8.874.954-12.883h2.672l3.11 9.467h.02l3.13-9.467h2.556c.56 4.695.891 8.99.993 12.883zm9.351-9.505c-.878 4.764-2.036 8.226-3.474 10.387-1.12 1.663-2.347 2.496-3.683 2.496-.356 0-.796-.108-1.317-.321v-1.149c.255.037.554.058.897.058.624 0 1.126-.172 1.508-.516.458-.42.687-.89.687-1.412 0-.357-.179-1.088-.535-2.195l-2.366-7.348h2.119l1.698 5.496c.381 1.248.54 2.119.477 2.615.929-2.48 1.577-5.185 1.947-8.112h2.042v.001zM51.66 34.826h-6.126V21.943h2.06V33.24h4.065v1.586zm-7.73.312l-2.367-1.17c.21-.172.41-.358.591-.575 1.007-1.182 1.509-2.93 1.509-5.247 0-4.262-1.673-6.394-5.019-6.394-1.64 0-2.92.54-3.836 1.623-1.006 1.183-1.508 2.925-1.508 5.23 0 2.264.445 3.925 1.335 4.979.815.954 2.043 1.432 3.685 1.432.612 0 1.175-.075 1.687-.226l3.083 1.795.84-1.447zm-7.671-2.89c-.522-.839-.783-2.186-.783-4.044 0-3.244.986-4.868 2.959-4.868 1.03 0 1.787.389 2.27 1.164.52.84.783 2.175.783 4.008 0 3.27-.986 4.905-2.958 4.905-1.032 0-1.788-.386-2.271-1.165zm-3.857-.993c0 1.093-.4 1.99-1.202 2.691-.801.7-1.876 1.05-3.223 1.05-1.26 0-2.482-.403-3.665-1.204l.554-1.106c1.018.51 1.939.763 2.766.763.776 0 1.383-.172 1.823-.513a1.75 1.75 0 0 0 .702-1.43c0-.766-.534-1.42-1.513-1.968-.903-.496-2.709-1.533-2.709-1.533-.979-.713-1.469-1.479-1.469-2.74 0-1.045.366-1.888 1.097-2.529.732-.643 1.677-.964 2.835-.964 1.195 0 2.282.32 3.262.954l-.497 1.107c-.838-.356-1.664-.534-2.48-.534-.66 0-1.17.159-1.525.478-.357.317-.578.723-.578 1.222 0 .761.545 1.424 1.551 1.983.915.496 2.766 1.55 2.766 1.55 1.004.713 1.505 1.472 1.505 2.723zM54.246 17.628c-1.246-.031-2.21.094-3.02.437-.234.093-.606.093-.638.388.126.125.14.327.25.5.187.31.512.73.81.948.326.25.653.497.997.715.605.375 1.291.593 1.881.966.344.217.686.498 1.03.732.169.124.277.326.497.404v-.047c-.11-.14-.141-.343-.25-.498l-.467-.451a7.408 7.408 0 0 0-1.618-1.572c-.498-.343-1.588-.81-1.79-1.384l-.032-.031c.342-.032.749-.157 1.074-.252.53-.14 1.013-.108 1.556-.248.25-.062.498-.14.749-.218v-.14c-.282-.28-.483-.653-.78-.918a20.725 20.725 0 0 0-2.567-1.914c-.484-.312-1.105-.513-1.62-.779-.185-.094-.498-.14-.607-.296-.28-.342-.436-.793-.639-1.198a38.963 38.963 0 0 1-1.275-2.71c-.281-.606-.452-1.212-.794-1.773-1.605-2.646-3.347-4.249-6.024-5.822-.576-.327-1.26-.467-1.992-.638l-1.167-.062c-.25-.11-.5-.405-.717-.545-.888-.56-3.175-1.774-3.828-.172-.421 1.013.622 2.01.98 2.523.265.357.608.762.793 1.167.11.265.14.546.25.825.25.685.482 1.447.81 2.087.17.325.357.668.575.963.125.173.342.249.39.53-.217.31-.234.778-.359 1.167-.56 1.759-.341 3.938.453 5.23.248.39.84 1.246 1.633.918.702-.28.546-1.168.748-1.945.046-.188.016-.312.11-.435v.03c.216.436.435.855.637 1.292.483.762 1.323 1.556 2.024 2.084.373.282.668.764 1.135.936v-.047h-.03c-.095-.14-.234-.202-.358-.31a7.558 7.558 0 0 1-.81-.934 20.05 20.05 0 0 1-1.742-2.834c-.25-.483-.467-1.012-.669-1.494-.094-.186-.094-.467-.25-.56-.235.341-.576.637-.747 1.057-.296.67-.327 1.495-.437 2.352l-.061.03c-.496-.124-.668-.637-.857-1.073-.466-1.106-.544-2.88-.14-4.156.109-.327.577-1.354.39-1.665-.093-.298-.405-.468-.576-.702-.2-.295-.42-.668-.56-.996-.374-.871-.562-1.837-.964-2.707-.188-.406-.514-.826-.778-1.2-.297-.42-.623-.716-.858-1.214-.077-.171-.186-.451-.062-.637.03-.125.094-.172.218-.203.202-.17.778.046.98.14.577.233 1.06.451 1.542.778.218.156.451.452.73.53h.328c.497.108 1.058.03 1.526.17.824.265 1.571.654 2.241 1.074a13.811 13.811 0 0 1 4.855 5.324c.187.358.266.685.436 1.058.328.763.733 1.542 1.059 2.289.327.73.638 1.478 1.105 2.085.233.327 1.17.498 1.589.67.31.139.794.263 1.074.434.53.327 1.057.701 1.554 1.06.248.186 1.028.576 1.074.887M38.368 4.102a2.425 2.425 0 0 0-.637.078v.031h.03c.126.249.344.421.499.639.125.25.234.497.357.746l.03-.031c.22-.155.329-.405.329-.778-.095-.11-.11-.218-.188-.327-.092-.156-.294-.233-.42-.358M55.728 35.912h.323v-2.666h-.484l-.395 1.82-.428-1.82h-.466v2.666h.304v-2.028h.018l.449 2.028h.232l.447-2.028v2.028zm-2.598 0h.342v-2.214h.446v-.453h-1.253v.453h.465v2.214z"/>
    </g>
</svg>
