<svg xmlns="http://www.w3.org/2000/svg" width="80" height="17" viewBox="0 0 80 17">
    <path fill="#32454C" fill-rule="evenodd" d="M15.001 16.749c-.452 0-.896-.176-1.228-.509L3.492 5.96v9.053a1.737 1.737 0 1 1-3.475 0V1.764A1.738 1.738 0 0 1 2.983.536l10.28 10.281V1.764a1.737 1.737 0 1 1 3.475 0v13.248c0 .959-.778 1.737-1.737 1.737M23.046.044l-.477.89-3.692 6.71-.478.848.478.846 3.692 6.493.499.89h9.663l.478-.977 2.758-5.56 1.237-2.518h-2.8l-7.058.021c-.918-.012-1.762.82-1.762 1.738s.844 1.75 1.762 1.737l4.256-.022-1.042 2.107h-5.473l-2.715-4.778 2.737-4.95h5.821l1.357 2.784h3.497L33.58 1.022l-.478-.978H23.046m17.6-.022c-.91.011-1.728.85-1.716 1.759v4.527h3.474V1.781c.011-.924-.835-1.77-1.758-1.759m5.568 16.76c-.959 0-1.736-.778-1.736-1.737V1.798a1.737 1.737 0 1 1 3.474 0v9.053L58.233.569a1.735 1.735 0 0 1 2.965 1.229v13.247a1.737 1.737 0 1 1-3.474 0V5.992L47.443 16.274a1.735 1.735 0 0 1-1.229.508m27.853-8.374l5.404-5.384A1.738 1.738 0 0 0 77.02.562l-5.413 5.394L66.194.562a1.737 1.737 0 1 0-2.453 2.462l5.404 5.384-5.388 5.37a1.736 1.736 0 1 0 2.452 2.46l5.397-5.378 5.397 5.378c.325.326.766.508 1.226.507a1.737 1.737 0 0 0 1.226-2.968l-5.388-5.369m-33.421 8.325c-.91-.011-1.728-.85-1.716-1.759V7.702h3.474v7.272c.011.924-.835 1.77-1.758 1.759" opacity=".375"/>
</svg>
