<svg xmlns="http://www.w3.org/2000/svg" width="80" height="42" viewBox="0 0 80 42">
    <g fill="none" fill-rule="evenodd" opacity=".375">
        <ellipse cx="40" cy="20.822" fill="#32454C" rx="40" ry="20.822"/>
        <path fill="#FFF" fill-rule="nonzero" d="M11.233 33.15l4.384-22.191h10.136c4.384.274 6.575 2.465 6.575 6.301 0 6.576-5.205 10.411-9.863 10.137h-4.93l-1.097 5.754h-5.205zm7.397-9.862h3.288c2.465-.274 4.657-1.096 4.931-5.754 0-1.644-1.37-2.466-3.287-2.466H20l-1.37 8.22zm12.68 4.11l4.383-22.192H40.9l-1.096 5.753h4.931c4.384.274 6.028 2.465 5.48 5.205l-1.918 11.233h-5.48l1.919-10.137c.273-1.37.273-2.192-1.644-2.192h-4.11l-2.465 12.33H31.31zm16.635 5.753l4.384-22.192h10.137c4.383.274 6.575 2.465 6.575 6.301 0 6.576-5.205 10.411-9.863 10.137h-4.931l-1.096 5.754h-5.206zm7.397-9.863h3.288c2.466-.274 4.658-1.096 4.932-5.754 0-1.644-1.37-2.466-3.288-2.466h-3.562l-1.37 8.22z"/>
    </g>
</svg>
