<svg xmlns="http://www.w3.org/2000/svg" xmlns:xlink="http://www.w3.org/1999/xlink" width="50" height="50" viewBox="0 0 50 50">
    <defs>
        <path id="a" d="M0 0h49.806v49.806H0z"/>
    </defs>
    <g fill="none" fill-rule="evenodd" opacity=".375">
        <mask id="b" fill="#fff">
            <use xlink:href="#a"/>
        </mask>
        <g fill="#32454C" mask="url(#b)">
            <path d="M3.54 24.902c0 8.457 4.914 15.764 12.04 19.228L5.39 16.208a21.282 21.282 0 0 0-1.85 8.694zm35.785-1.078c0-2.64-.948-4.468-1.762-5.891-1.083-1.76-2.097-3.25-2.097-5.01 0-1.964 1.489-3.792 3.587-3.792.095 0 .184.012.277.017A21.286 21.286 0 0 0 24.903 3.54c-7.463 0-14.03 3.83-17.85 9.63.502.014.975.024 1.375.024 2.235 0 5.694-.27 5.694-.27 1.152-.069 1.287 1.623.137 1.759 0 0-1.157.136-2.445.204l7.78 23.14 4.675-14.022-3.329-9.119c-1.15-.067-2.24-.203-2.24-.203-1.151-.068-1.016-1.828.135-1.76 0 0 3.528.27 5.627.27 2.234 0 5.694-.27 5.694-.27 1.152-.068 1.287 1.623.137 1.76 0 0-1.16.136-2.445.203l7.72 22.965 2.13-7.12c.924-2.955 1.627-5.078 1.627-6.907z"/>
            <path d="M25.278 26.771l-6.41 18.625a21.349 21.349 0 0 0 13.13-.34 1.81 1.81 0 0 1-.152-.294l-6.568-17.99zm18.37-12.118c.093.68.145 1.411.145 2.197 0 2.167-.405 4.604-1.625 7.652l-6.525 18.867c6.35-3.704 10.623-10.585 10.623-18.467a21.247 21.247 0 0 0-2.617-10.25z"/>
            <path d="M24.903 0C11.172 0 0 11.171 0 24.902c0 13.733 11.172 24.905 24.903 24.905 13.731 0 24.905-11.171 24.905-24.905C49.808 11.172 38.634 0 24.903 0zm0 48.665c-13.101 0-23.761-10.66-23.761-23.763 0-13.1 10.66-23.76 23.761-23.76 13.101 0 23.76 10.66 23.76 23.76 0 13.103-10.659 23.763-23.76 23.763z"/>
        </g>
    </g>
</svg>
